<svg enable-background="new 0 0 512 512" viewBox="0 0 512 512" xmlns="http://www.w3.org/2000/svg"><path d="m245.818 231.747-102.873-102.873c-5.624-5.624-5.624-14.741 0-20.365l102.873-102.872c5.624-5.624 14.741-5.624 20.365 0l102.872 102.873c5.624 5.624 5.624 14.741 0 20.365l-102.873 102.872c-5.623 5.623-14.741 5.623-20.364 0zm20.364 274.616 102.873-102.873c5.624-5.624 5.624-14.741 0-20.365l-102.873-102.872c-5.624-5.624-14.741-5.624-20.365 0l-102.872 102.873c-5.624 5.624-5.624 14.741 0 20.365l102.873 102.873c5.623 5.623 14.741 5.623 20.364-.001zm14.071-241.724 102.873 102.873c5.624 5.624 14.741 5.624 20.365 0l102.873-102.873c5.624-5.624 5.624-14.741 0-20.365l-102.874-102.872c-5.624-5.624-14.741-5.624-20.365 0l-102.872 102.873c-5.623 5.623-5.623 14.741 0 20.364zm-274.616 0 102.873 102.873c5.624 5.624 14.741 5.624 20.365 0l102.873-102.873c5.624-5.624 5.624-14.741 0-20.365l-102.874-102.872c-5.624-5.624-14.741-5.624-20.365 0l-102.872 102.873c-5.624 5.623-5.624 14.741 0 20.364z" fill="#59cafc"/><circle cx="253.538" cy="256" fill="#0096d1" r="52.235"/></svg>
